<svg width="1200" height="720" viewBox="0 0 1200 720" fill="none" xmlns="http://www.w3.org/2000/svg">
  <rect width="1200" height="720" rx="40" fill="#090A0D"/>
  <rect x="60" y="70" width="520" height="580" rx="28" fill="#141821"/>
  <rect x="620" y="110" width="520" height="500" rx="32" fill="#11161F"/>

  <text x="110" y="150" fill="#F8FAFC" font-family="Arial, sans-serif" font-size="54" font-weight="700">Bark Setup</text>
  <text x="110" y="205" fill="#95A1B7" font-family="Arial, sans-serif" font-size="26">Open Bark and copy the same AES256 / GCM / noPadding values.</text>

  <rect x="110" y="260" width="420" height="118" rx="22" fill="#1C2433" stroke="#2C3B53"/>
  <text x="145" y="305" fill="#C9D3E6" font-family="Arial, sans-serif" font-size="22">Bark URL or Key</text>
  <text x="145" y="345" fill="#FFFFFF" font-family="Arial, sans-serif" font-size="28" font-weight="700">https://api.day.app/&lt;device-key&gt;</text>

  <rect x="110" y="405" width="420" height="98" rx="22" fill="#1C2433" stroke="#2C3B53"/>
  <text x="145" y="448" fill="#C9D3E6" font-family="Arial, sans-serif" font-size="22">Key</text>
  <text x="145" y="483" fill="#FFFFFF" font-family="Arial, sans-serif" font-size="26" font-weight="700">32 chars, same on both apps</text>

  <rect x="110" y="528" width="420" height="98" rx="22" fill="#1C2433" stroke="#2C3B53"/>
  <text x="145" y="571" fill="#C9D3E6" font-family="Arial, sans-serif" font-size="22">IV</text>
  <text x="145" y="606" fill="#FFFFFF" font-family="Arial, sans-serif" font-size="26" font-weight="700">12 chars, fixed value</text>

  <rect x="690" y="165" width="380" height="320" rx="30" fill="#05070B" stroke="#2F4FFC" stroke-width="3"/>
  <text x="735" y="235" fill="#FFFFFF" font-family="Arial, sans-serif" font-size="46" font-weight="700">Encryption Settings</text>
  <text x="735" y="290" fill="#C8D2E3" font-family="Arial, sans-serif" font-size="28">Algorithm</text>
  <rect x="735" y="310" width="290" height="58" rx="16" fill="#111827" stroke="#25324A"/>
  <text x="765" y="348" fill="#FFFFFF" font-family="Arial, sans-serif" font-size="30" font-weight="700">AES256</text>

  <text x="735" y="410" fill="#C8D2E3" font-family="Arial, sans-serif" font-size="28">Mode / Padding</text>
  <rect x="735" y="430" width="290" height="58" rx="16" fill="#111827" stroke="#25324A"/>
  <text x="765" y="468" fill="#FFFFFF" font-family="Arial, sans-serif" font-size="30" font-weight="700">GCM / noPadding</text>

  <path d="M535 330C610 330 620 330 690 330" stroke="#FF6B4A" stroke-width="10" stroke-linecap="round"/>
  <path d="M680 312L720 330L680 348" fill="#FF6B4A"/>
  <text x="610" y="295" fill="#FFB39E" font-family="Arial, sans-serif" font-size="26" font-weight="700">Open this screen in Bark</text>

  <rect x="665" y="530" width="420" height="54" rx="27" fill="#2F4FFC"/>
  <text x="720" y="566" fill="#FFFFFF" font-family="Arial, sans-serif" font-size="28" font-weight="700">Match the values from Android exactly</text>
</svg>
